<mxfile host="app.diagrams.net" modified="2020-09-21T13:06:47.389Z" agent="5.0 (Windows NT 10.0; Win64; x64) AppleWebKit/537.36 (KHTML, like Gecko) Chrome/85.0.4183.102 Safari/537.36" etag="EK6ge-8IlGyKtDrjmRD_" version="13.6.9" type="github">
  <diagram id="vguHIWiOaxnCjFPLqQ26" name="Page-1">
    <mxGraphModel dx="1422" dy="745" grid="1" gridSize="10" guides="1" tooltips="1" connect="1" arrows="1" fold="1" page="1" pageScale="1" pageWidth="827" pageHeight="1169" math="0" shadow="0">
      <root>
        <mxCell id="0" />
        <mxCell id="1" parent="0" />
        <mxCell id="HJXHM5gThBq5zjt-Drg2-1" value="&lt;font style=&quot;font-size: 15px&quot;&gt;Master recv&lt;br&gt;snapshot req&lt;/font&gt;" style="ellipse;whiteSpace=wrap;html=1;" vertex="1" parent="1">
          <mxGeometry x="200" y="50" width="120" height="80" as="geometry" />
        </mxCell>
      </root>
    </mxGraphModel>
  </diagram>
</mxfile>
